HIERARCHY
ROOT Hips
{
	OFFSET	0.00	0.00	0.00
	CHANNELS 6 Xposition Yposition Zposition Zrotation Xrotation Yrotation
	JOINT Spine
	{
		OFFSET	 0.00	0.01	 0.00
		CHANNELS 3 Zrotation Xrotation Yrotation
		JOINT Spine1
		{
			OFFSET	 0.00	 2.45913012437421	 0.00
			CHANNELS 3 Zrotation Xrotation Yrotation
            JOINT Neck
            {
                OFFSET	 0.00	 2.48462964506057	 0.00
                CHANNELS 3 Zrotation Xrotation Yrotation
                JOINT Head
                {
                    OFFSET	 0.00	 0.927524780924562	 0.00
                    CHANNELS 3 Zrotation Xrotation Yrotation
                    End Site 
                    {
                        OFFSET	 0.00	 1.14999962169752	 0.00
                    }
                }
            }
			JOINT LeftShoulder
			{
				OFFSET	 0.00	 2.48462964506057	 0.00
				CHANNELS 3 Zrotation Xrotation Yrotation
				JOINT LeftUpArm
				{
					OFFSET	 0.00	 1.24881979654096	 0.00
					CHANNELS 3 Zrotation Xrotation Yrotation
					JOINT LeftForeArm
					{
						OFFSET	 0.00	2.59758046908119	 0.00
						CHANNELS 3 Zrotation Xrotation Yrotation
						JOINT LeftHand
						{
							OFFSET	 0.00	2.45542024364365	 0.00
							CHANNELS 3 Zrotation Xrotation Yrotation
							JOINT LeftHandThumb 
							{
								OFFSET	 0.00	0.00	 0.00
								CHANNELS 3 Zrotation Xrotation Yrotation
								End Site
								{
									OFFSET	 0.00	0.00	1.00000003353624
								}
							}
							JOINT L_Wrist_End 
							{
								OFFSET	 0.00	0.99999967115358	 0.00
								CHANNELS 3 Zrotation Xrotation Yrotation
								End Site 
								{
									OFFSET	 0.00	 0.00	 0.00
								}
							}
						}
					}
				}
			}
			JOINT RightShoulder
			{
				OFFSET	 0.00	 2.48462964506057	 0.00
				CHANNELS 3 Zrotation Xrotation Yrotation
				JOINT RightUpArm
				{
					OFFSET	 0.00	 1.24881979654096	 0.00
					CHANNELS 3 Zrotation Xrotation Yrotation
					JOINT RightForeArm
					{
						OFFSET	 0.00	2.59758046908119	 0.00
						CHANNELS 3 Zrotation Xrotation Yrotation
						JOINT RightHand
						{
							OFFSET	 0.00	2.45542024364365	 0.00
							CHANNELS 3 Zrotation Xrotation Yrotation
							JOINT RightHandThumb 
							{
								OFFSET	 0.00	0.00	 0.00
								CHANNELS 3 Zrotation Xrotation Yrotation
								End Site
								{
									OFFSET	 0.00	0.00	1.00000003353624
								}
							}
							JOINT R_Wrist_End 
							{
								OFFSET	 0.00	0.99999967115358	 0.00
								CHANNELS 3 Zrotation Xrotation Yrotation
								End Site 
								{
									OFFSET	 0.00	 0.00	 0.00
								}
							}
						}
					}
				}
			}
		}
	}
	JOINT LeftUpLeg
	{
		OFFSET	 1.2719394002717	 0.00	 0.00
		CHANNELS 3 Zrotation Xrotation Yrotation
		JOINT LeftLowLeg
		{
			OFFSET	 0.00	-4.3429100912261	 0.00
			CHANNELS 3 Zrotation Xrotation Yrotation
			JOINT LeftFoot
			{
				OFFSET	 0.00	-4.48767017425826	 0.00
				CHANNELS 3 Zrotation Xrotation Yrotation
				JOINT LeftToeBase
                {
                    OFFSET	 0.00	0.00	 1.51507020887566
                    CHANNELS 3 Zrotation Xrotation Yrotation
                    End Site 
                    {
                        OFFSET	 0.00	0.00	 0.75000010571191
                    }
                }
			}
		}
	}
	JOINT RightUpLeg
	{
		OFFSET	 -1.2719393604653	 0.00	 0.00
		CHANNELS 3 Zrotation Xrotation Yrotation
		JOINT RightLowLeg
		{
			OFFSET	 0.00	-4.3429100912261	 0.00
			CHANNELS 3 Zrotation Xrotation Yrotation
			JOINT RightFoot
			{
				OFFSET	 0.00	-4.48767017425826	 0.00
				CHANNELS 3 Zrotation Xrotation Yrotation
				JOINT RightToeBase
                {
                    OFFSET	 0.00	0.00	 1.51507020887566
                    CHANNELS 3 Zrotation Xrotation Yrotation
                    End Site 
                    {
                        OFFSET	 0.00	0.00	 0.749999965609858
                    }
                }   
			}
		}
	}
}
MOTION 
Frames:	17 
Frame Time: 0.02 
 0.4007379913330078 4.731640014648438 9.360750122070312 -159.465 81.6197 515.988 3.08821 -5.51576 1.49923 4.09901 -11.9082 1.97777 -44.1998 45.0456 760.997 95.0297 -60.9786 91.525 -113.191696 -9.99816 -9.56461 18.2146 15.9431 -29.4431 0.0 6.54297 0.0 28.418 -9.79885 28.1673 0.0 0.0 0.0 0.0 0.0 0.0 110.3736 -8.21244 4.03351 -10.9073 0.883628 57.7647 0.0 16.5732 0.0 -28.2229 -15.8385 -49.1975 0.0 0.0 0.0 0.0 0.0 0.0 4.11732 -5.09691 1.7571 0.0 7.89832 0.0 -16.9205 0.034999847 7.25172 0.0 -30.0602 0.0 5.53336 -4.15288 0.774895 0.0 8.71482 0.0 13.0084 3.7824001 -19.3381 0.0 -31.853 0.0 
  0.39953399658203126 4.734410095214844 9.360800170898438 -159.205 81.6665 515.752 3.0705 -5.50527 1.49487 4.13405 -11.8222 1.97029 -44.2808 45.0441 761.126 94.9923 -60.9371 91.4924 -113.197 -9.93403 -9.60753 18.1607 15.9301 -29.4731 0.0 6.49169 0.0 28.3032 -9.70689 28.324 0.0 0.0 0.0 0.0 0.0 0.0 110.3882 -8.19126 4.04515 -10.9065 0.884299 57.6557 0.0 16.5688 0.0 -28.089 -15.8678 -48.9688 0.0 0.0 0.0 0.0 0.0 0.0 4.1345 -5.02697 1.63082 0.0 7.83769 0.0 -16.9431 0.025099754 7.33206 0.0 -30.0156 0.0 5.56069 -4.11043 0.793719 0.0 8.71523 0.0 13.0043 3.7841997 -19.3893 0.0 -31.8426 0.0 
  0.3985100173950195 4.737479858398437 9.360579833984374 -159.027 81.6926 515.579 3.05549 -5.50755 1.49548 4.17372 -11.7589 1.96867 -44.3464 45.0596 761.207 94.9431 -60.9117 91.477 -113.1938 -9.89342 -9.54632 18.111 15.9183 -29.5352 0.0 6.47153 0.0 28.3254 -9.79814 28.3831 0.0 0.0 0.0 0.0 0.0 0.0 110.3831 -8.13632 3.94186 -10.903 0.862302 57.6469 0.0 16.5285 0.0 -28.1511 -15.8745 -48.9746 0.0 0.0 0.0 0.0 0.0 0.0 4.14897 -4.96177 1.46389 0.0 7.74279 0.0 -16.9909 0.00949955 7.44715 0.0 -30.015099 0.0 5.58 -4.09487 0.805415 0.0 8.71692 0.0 13.0233 3.783 -19.3917 0.0 -31.8431 0.0 
  0.3965290069580078 4.745029907226563 9.360560302734376 -158.83 81.7122 515.41 3.02647 -5.52592 1.5021 4.20654 -11.6628 1.97395 -44.4272 45.0924 761.334 94.8453 -60.846 91.4379 -113.1854 -9.81083 -9.46702 18.0418 15.9617 -29.5555 0.0 6.42287 0.0 28.3673 -10.0039 28.3781 0.0 0.0 0.0 0.0 0.0 0.0 110.3925 -8.09708 3.88109 -10.8669 0.840137 57.4684 0.0 16.4924 0.0 -28.1045 -15.86 -48.9203 0.0 0.0 0.0 0.0 0.0 0.0 4.18791 -4.94589 1.5295 0.0 7.66535 0.0 -16.9721 0.081700325 7.3635 0.0 -30.0742 0.0 5.61069 -4.10432 0.832193 0.0 8.70524 0.0 13.013 3.8062 -19.4322 0.0 -31.898 0.0 
  0.39620098114013674 4.746809997558594 9.360540161132812 -158.788 81.7192 515.348 3.01716 -5.56052 1.52438 4.23093 -11.5986 1.99463 -44.4701 45.0936 761.383 94.8091 -60.8453 91.3922 -113.195 -9.7649 -9.46887 18.0095 15.971 -29.5253 0.0 6.42754 0.0 28.3591 -10.0696 28.2938 0.0 0.0 0.0 0.0 0.0 0.0 110.3812 -8.08923 3.84863 -10.8538 0.80838 57.2992 0.0 16.4932 0.0 -28.1173 -15.9025 -48.8516 0.0 0.0 0.0 0.0 0.0 0.0 4.19461 -4.91328 1.52898 0.0 7.60669 0.0 -16.9703 0.09659958 7.37992 0.0 -30.0683 0.0 5.61697 -4.10592 0.8587 0.0 8.70392 0.0 13.001 3.8174 -19.4372 0.0 -31.9199 0.0 
  0.39492900848388673 4.7538299560546875 9.3602197265625 -158.454 81.7853 515.021 2.99985 -5.50228 1.53406 4.2476 -11.5592 2.00459 -44.5435 45.1402 761.469 94.7143 -60.8097 91.3097 -113.191 -9.75138 -9.42996 17.9347 16.0886 -29.7444 0.0 6.44707 0.0 28.3912 -10.0931 28.1759 0.0 0.0 0.0 0.0 0.0 0.0 110.372 -8.07914 3.8235 -10.8007 0.830032 57.3695 0.0 16.4734 0.0 -27.9989 -15.8641 -48.7918 0.0 0.0 0.0 0.0 0.0 0.0 4.22694 -4.80891 1.58011 0.0 7.47306 0.0 -16.973 0.1612997 7.31118 0.0 -30.0867 0.0 5.64607 -4.05937 0.920191 0.0 8.68918 0.0 12.9907 3.8184996 -19.4924 0.0 -31.8882 0.0 
  0.3940169906616211 4.759630126953125 9.359760131835937 -158.378 81.7886 514.925 2.98558 -5.54073 1.5493 4.26353 -11.4951 2.0189 -44.6191 45.2132 761.522 94.6568 -60.7894 91.2546 -113.209 -9.67858 -9.43603 17.8881 16.09 -29.8399 0.0 6.55359 0.0 28.3691 -10.1543 28.092 0.0 0.0 0.0 0.0 0.0 0.0 110.3752 -8.05712 3.81966 -10.7569 0.866249 57.3166 0.0 16.4716 0.0 -28.0932 -15.8884 -48.6607 0.0 0.0 0.0 0.0 0.0 0.0 4.24862 -4.75494 1.61658 0.0 7.32369 0.0 -16.9701 0.21360016 7.2884 0.0 -30.1453 0.0 5.66858 -4.04233 1.02748 0.0 8.60596 0.0 13.0171 3.8177004 -19.56 0.0 -31.8844 0.0 
  0.3936859893798828 4.767130126953125 9.359849853515625 -158.68 81.7159 515.252 2.97152 -5.60392 1.51695 4.24608 -11.5292 1.98976 -44.7594 45.3034 761.629 94.6492 -60.7618 91.2499 -113.2428 -9.69337 -9.44582 17.862 16.1393 -29.9513 0.0 6.69131 0.0 28.4033 -10.2495 28.0065 0.0 0.0 0.0 0.0 0.0 0.0 110.3883 -8.01837 3.85287 -10.7147 0.936256 57.235 0.0 16.4849 0.0 -28.1056 -15.9006 -48.5953 0.0 0.0 0.0 0.0 0.0 0.0 4.24389 -4.83581 1.57097 0.0 7.21526 0.0 -16.9724 0.28180027 7.31401 0.0 -30.193901 0.0 5.65874 -4.1561 0.957529 0.0 8.57534 0.0 13.0068 3.8421001 -19.5068 0.0 -31.9222 0.0 
  0.39325599670410155 4.774119873046875 9.359409790039063 -158.657 81.6872 515.183 3.00196 -5.69411 1.51259 4.19879 -11.4447 1.97771 -44.8476 45.4402 761.643 94.5735 -60.7473 91.1942 -113.263 -9.68653 -9.42387 17.836 16.1205 -30.0389 0.0 6.91509 0.0 28.4033 -10.3131 27.8542 0.0 0.0 0.0 0.0 0.0 0.0 110.4468 -7.942 3.77265 -10.69 0.94042 57.1052 0.0 16.5258 0.0 -28.071 -15.908 -48.4307 0.0 0.0 0.0 0.0 0.0 0.0 4.27555 -4.82358 1.74343 0.0 7.07784 0.0 -16.9802 0.34959984 7.19694 0.0 -30.2283 0.0 5.67332 -4.21638 0.858967 0.0 8.55831 0.0 12.9487 3.9028997 -19.3858 0.0 -31.9413 0.0 
  0.3933639907836914 4.7799899291992185 9.358889770507812 -158.416 81.7222 514.92 3.01955 -5.70019 1.50293 4.19525 -11.3597 1.96051 -44.9245 45.5631 761.613 94.484 -60.7737 91.1423 -113.266 -9.65801 -9.47439 17.7435 16.076 -30.0284 0.0 7.1004 0.0 28.3355 -10.309 27.6248 0.0 0.0 0.0 0.0 0.0 0.0 110.4621 -7.92155 3.6496 -10.6594 1.03693 57.4339 0.0 16.5146 0.0 -28.1104 -15.7799 -48.5792 0.0 0.0 0.0 0.0 0.0 0.0 4.28971 -4.75723 1.56467 0.0 6.98121 0.0 -16.9888 0.32059956 7.35173 0.0 -30.1945 0.0 5.69153 -4.20494 0.883981 0.0 8.55677 0.0 12.9615 3.9024 -19.3713 0.0 -31.9434 0.0 
  0.39388801574707033 4.788190002441406 9.35885009765625 -158.504 81.6979 515.029 3.00206 -5.69881 1.46808 4.20282 -11.4065 1.92905 -44.9869 45.8396 761.493 94.2714 -60.7935 90.9011 -113.304 -9.66335 -9.25978 17.7539 15.9961 -30.1956 0.0 7.24515 0.0 28.2286 -10.2389 27.2914 0.0 0.0 0.0 0.0 0.0 0.0 110.4754 -7.92022 3.5116 -10.6681 1.09156 57.287 0.0 16.4838 0.0 -28.0755 -15.7213 -48.4844 0.0 0.0 0.0 0.0 0.0 0.0 4.2862 -4.85096 1.47791 0.0 7.00025 0.0 -17.0024 0.32359982 7.40168 0.0 -30.210201 0.0 5.68723 -4.29129 0.852185 0.0 8.57601 0.0 12.9181 3.9301996 -19.3831 0.0 -31.9256 0.0 
  0.3939970016479492 4.795079956054687 9.358610229492188 -158.395 81.7254 514.869 2.98255 -5.69936 1.47171 4.23731 -11.3864 1.93382 -44.9357 46.3199 761.081 93.884 -60.8689 90.4746 -113.2923 -9.58086 -9.23237 17.6048 15.8556 -30.1122 0.0 7.44386 0.0 28.2353 -10.1536 27.0797 0.0 0.0 0.0 0.0 0.0 0.0 110.4914 -7.72183 3.54075 -10.6704 0.898094 56.8234 0.0 16.5289 0.0 -28.0326 -15.7011 -48.2483 0.0 0.0 0.0 0.0 0.0 0.0 4.29381 -4.84654 1.43763 0.0 6.98968 0.0 -17.016 0.3107996 7.46512 0.0 -30.2059 0.0 5.69652 -4.29834 0.913599 0.0 8.5667 0.0 12.906 3.948 -19.4014 0.0 -31.963 0.0 
  0.39402400970458984 4.799960021972656 9.3585302734375 -158.316 81.7634 514.683 2.95838 -5.75181 1.49056 4.27292 -11.2777 1.95058 -44.796 46.9456 760.459 93.4215 -60.9648 90.0231 -113.2807 -9.55967 -9.25556 17.4146 15.7675 -30.0135 0.0 7.65527 0.0 28.3154 -10.1133 27.0079 0.0 0.0 0.0 0.0 0.0 0.0 110.4767 -7.68046 3.34527 -10.5984 0.913303 57.0335 0.0 16.5513 0.0 -27.8741 -15.5715 -48.2084 0.0 0.0 0.0 0.0 0.0 0.0 4.29905 -4.79825 1.50069 0.0 6.9546 0.0 -17.0217 0.3192997 7.49044 0.0 -30.238201 0.0 5.69242 -4.28751 0.936282 0.0 8.55186 0.0 12.8883 3.9932003 -19.3214 0.0 -31.9914 0.0 
  0.39406600952148435 4.808580017089843 9.35885009765625 -158.917 81.5781 515.159 2.93378 -5.92711 1.5206 4.33076 -11.4171 1.99233 -44.7377 47.8563 759.834 92.701 -61.0155 89.0585 -113.1941 -9.48755 -9.0774 17.0949 15.4493 -29.9179 0.0 8.10406 0.0 28.2855 -10.1351 26.941 0.0 0.0 0.0 0.0 0.0 0.0 110.4439 -7.51358 3.32614 -10.5322 0.816364 56.7504 0.0 16.5805 0.0 -27.8399 -15.6044 -47.8839 0.0 0.0 0.0 0.0 0.0 0.0 4.31517 -5.04465 1.62718 0.0 6.97592 0.0 -17.0215 0.3298998 7.49186 0.0 -30.2485 0.0 5.70385 -4.5523 1.03674 0.0 8.5555 0.0 12.9174 4.0098 -19.2619 0.0 -31.9442 0.0 
  0.39554298400878907 4.814840087890625 9.358070068359375 -158.38 81.7234 514.565 2.96169 -5.81526 1.51634 4.32991 -11.429 1.9837 -44.6637 48.8169 759.087 92.2245 -61.116 88.3469 -113.1767 -9.45109 -9.06142 16.8778 15.348 -29.6537 0.0 8.1968 0.0 28.2399 -10.0492 26.7386 0.0 0.0 0.0 0.0 0.0 0.0 110.394196 -7.44061 3.38399 -10.4233 0.821822 56.3079 0.0 16.6185 0.0 -27.7844 -15.6108 -47.5267 0.0 0.0 0.0 0.0 0.0 0.0 4.32197 -4.89631 1.64824 0.0 6.95433 0.0 -17.0195 0.31089973 7.50309 0.0 -30.2725 0.0 5.70348 -4.39607 0.982949 0.0 8.4893 0.0 12.8314 4.0912 -19.2229 0.0 -32.0707 0.0 
  0.3967530059814453 4.821610107421875 9.3577197265625 -158.455 81.7374 514.659 2.9676 -5.83606 1.47874 4.28021 -11.4941 1.9485 -44.5066 49.9925 758.151 91.7608 -61.1818 87.6086 -113.2314 -9.44074 -8.98686 16.782 15.3289 -29.7214 0.0 8.20505 0.0 28.1242 -9.94752 26.7418 0.0 0.0 0.0 0.0 0.0 0.0 110.43 -7.35667 3.34561 -10.3533 0.784647 56.254 0.0 16.64 0.0 -27.6256 -15.3867 -47.3679 0.0 0.0 0.0 0.0 0.0 0.0 4.30156 -4.94329 1.62952 0.0 6.96835 0.0 -17.0325 0.33150005 7.49102 0.0 -30.2886 0.0 5.68414 -4.37322 0.957971 0.0 8.37976 0.0 12.8373 4.0928 -19.2166 0.0 -32.0343 0.0 
  0.3975389862060547 4.826470031738281 9.357319946289062 -158.446 81.7129 514.602 2.99432 -5.99897 1.46588 4.25551 -11.401 1.92697 -44.2307 51.3049 756.996 91.0878 -61.2582 86.7765 -113.2267 -9.46633 -9.09693 16.5417 15.3252 -29.391 0.0 8.25561 0.0 27.8066 -9.97335 26.424 0.0 0.0 0.0 0.0 0.0 0.0 110.429504 -7.36216 3.37299 -10.2079 0.972872 56.4969 0.0 16.6494 0.0 -27.5573 -15.1476 -47.445 0.0 0.0 0.0 0.0 0.0 0.0 4.3174 -4.97083 1.71403 0.0 6.93807 0.0 -17.022 0.34000015 7.45733 0.0 -30.309 0.0 5.69343 -4.37021 0.905632 0.0 8.27013 0.0 12.7773 4.1612997 -19.158 0.0 -32.0458 0.0 
